HIERARCHY
ROOT Hips
{
	OFFSET 0.00000 0.00000 0.00000
	CHANNELS 6 Xposition Yposition Zposition Zrotation Yrotation Xrotation 
	JOINT LHipJoint
	{
		OFFSET 0 0 0
		CHANNELS 3 Zrotation Yrotation Xrotation
		JOINT LeftUpLeg
		{
			OFFSET 1.55020 -1.87941 0.79896
			CHANNELS 3 Zrotation Yrotation Xrotation
			JOINT LeftLeg
			{
				OFFSET 2.65269 -7.28822 0.00000
				CHANNELS 3 Zrotation Yrotation Xrotation
				JOINT LeftFoot
				{
					OFFSET 2.61200 -7.17641 0.00000
					CHANNELS 3 Zrotation Yrotation Xrotation
					JOINT LeftToeBase
					{
						OFFSET 0.09338 -0.25656 1.92461
						CHANNELS 3 Zrotation Yrotation Xrotation
						End Site
						{
							OFFSET 0.00000 -0.00000 0.98480
						}
					}
				}
			}
		}
	}
	JOINT RHipJoint
	{
		OFFSET 0 0 0
		CHANNELS 3 Zrotation Yrotation Xrotation
		JOINT RightUpLeg
		{
			OFFSET -1.56866 -1.87941 0.79895
			CHANNELS 3 Zrotation Yrotation Xrotation
			JOINT RightLeg
			{
				OFFSET -2.60199 -7.14892 0.00000
				CHANNELS 3 Zrotation Yrotation Xrotation
				JOINT RightFoot
				{
					OFFSET -2.62841 -7.22151 0.00000
					CHANNELS 3 Zrotation Yrotation Xrotation
					JOINT RightToeBase
					{
						OFFSET -0.19532 -0.53663 1.93132
						CHANNELS 3 Zrotation Yrotation Xrotation
						End Site
						{
							OFFSET -0.00000 -0.00000 1.00896
						}
					}
				}
			}
		}
	}
	JOINT LowerBack
	{
		OFFSET 0 0 0
		CHANNELS 3 Zrotation Yrotation Xrotation
		JOINT Spine
		{
			OFFSET 0.06381 2.07806 -0.22112
			CHANNELS 3 Zrotation Yrotation Xrotation
			JOINT Spine1
			{
				OFFSET -0.02881 2.08890 0.01825
				CHANNELS 3 Zrotation Yrotation Xrotation
				JOINT Neck
				{
					OFFSET 0 0 0
					CHANNELS 3 Zrotation Yrotation Xrotation
					JOINT Neck1
					{
						OFFSET 0.02418 1.74325 -0.02023
						CHANNELS 3 Zrotation Yrotation Xrotation
						JOINT Head
						{
							OFFSET -0.01704 1.71677 0.04090
							CHANNELS 3 Zrotation Yrotation Xrotation
							End Site
							{
								OFFSET -0.00946 1.78238 0.01684
							}
						}
					}
				}
				JOINT LeftShoulder
				{
					OFFSET 0 0 0
					CHANNELS 3 Zrotation Yrotation Xrotation
					JOINT LeftArm
					{
						OFFSET 3.39783 1.34157 0.16610
						CHANNELS 3 Zrotation Yrotation Xrotation
						JOINT LeftForeArm
						{
							OFFSET 5.15218 -0.00000 0.00000
							CHANNELS 3 Zrotation Yrotation Xrotation
							JOINT LeftHand
							{
								OFFSET 3.49459 -0.00000 0.00000
								CHANNELS 3 Zrotation Yrotation Xrotation
								JOINT LeftFingerBase
								{
									OFFSET 0 0 0
									CHANNELS 3 Zrotation Yrotation Xrotation
									JOINT LeftHandIndex1
									{
										OFFSET 0.51247 -0.00000 0.00000
										CHANNELS 3 Zrotation Yrotation Xrotation
										End Site
										{
											OFFSET 0.41316 -0.00000 0.00000
										}
									}
								}
								JOINT LThumb
								{
									OFFSET 0 0 0
									CHANNELS 3 Zrotation Yrotation Xrotation
									End Site
									{
										OFFSET 0.41947 -0.00000 0.41947
									}
								}
							}
						}
					}
				}
				JOINT RightShoulder
				{
					OFFSET 0 0 0
					CHANNELS 3 Zrotation Yrotation Xrotation
					JOINT RightArm
					{
						OFFSET -3.26224 1.05509 0.01188
						CHANNELS 3 Zrotation Yrotation Xrotation
						JOINT RightForeArm
						{
							OFFSET -5.44344 -0.00000 0.00000
							CHANNELS 3 Zrotation Yrotation Xrotation
							JOINT RightHand
							{
								OFFSET -3.58403 -0.00000 0.00000
								CHANNELS 3 Zrotation Yrotation Xrotation
								JOINT RightFingerBase
								{
									OFFSET 0 0 0
									CHANNELS 3 Zrotation Yrotation Xrotation
									JOINT RightHandIndex1
									{
										OFFSET -0.34249 -0.00000 0.00000
										CHANNELS 3 Zrotation Yrotation Xrotation
										End Site
										{
											OFFSET -0.27612 -0.00000 0.00000
										}
									}
								}
								JOINT RThumb
								{
									OFFSET 0 0 0
									CHANNELS 3 Zrotation Yrotation Xrotation
									End Site
									{
										OFFSET -0.28034 -0.00000 0.28034
									}
								}
							}
						}
					}
				}
			}
		}
	}
}
MOTION
Frames: 15
Frame Time: .0083333
-9.8743 16.2878 3.9244 0 0 0 0 0 0 -21 0 0 0 0 0 0 0 0 0 0 0 0 0 0 21 0 0 0 0 0 0 0 0 0 0 0 0 0 0 0 0 0 0 0 0 0 0 -16 0 0 21 0 0 11 0 0 0 -8 0 0 0 0 0 0 0 0 0 0 0 0 0 0 0 0 0 0 0 0 8 0 0 0 0 0 0 0 0 0 0 0 0 0 0 0 0 0
-9.8743 16.2878 3.9244 -158.6870 -83.5687 154.6180 0.0000 0.0000 0.0000 -14.0368 -0.2681 -20.3698 10.3795 17.6178 60.7495 0.9776 -20.1148 -21.1986 0.6676 -5.2252 -14.5520 0.0000 0.0000 0.0000 19.1907 7.4475 -18.3966 -9.9569 -17.3855 59.3441 -3.0476 6.5864 -31.7490 -0.6457 5.1403 -14.3093 4.3844 -0.5131 13.1542 -0.7104 -0.1474 1.1510 -3.2022 -0.2226 -6.1797 2.4850 3.2463 2.7267 -2.0648 4.3568 -3.4576 -1.1474 2.1806 -1.4302 -0.0000 0.0000 0.0000 -57.3032 -10.2461 38.4498 71.0713 -58.6019 -43.6842 -0.0000 -0.0000 24.0955 -16.2613 5.8174 -1.6934 -7.1250 0.0000 -0.0000 -33.9167 33.8328 11.0148 -0.0000 0.0000 0.0000 62.3041 16.2091 44.6268 -68.0394 58.0969 -41.1031 0.0000 0.0000 37.2232 34.2593 -21.4936 -14.0124 7.1250 -0.0000 -0.0000 53.9411 -44.1419 1.6907
-9.8715 16.2882 3.9244 -158.3610 -83.5896 154.3090 0.0000 0.0000 0.0000 -14.0032 -0.3252 -20.3836 10.3779 17.6170 60.7442 0.9477 -20.2536 -21.0688 0.6037 -4.9736 -13.8332 0.0000 0.0000 0.0000 19.2167 7.4332 -18.4383 -9.9581 -17.3862 59.3484 -3.0456 6.5168 -31.7458 -0.6640 5.2112 -14.5119 4.4038 -0.5291 13.0652 -0.6914 -0.1708 1.2039 -3.1882 -0.2314 -6.0758 2.3297 3.2057 2.6212 -1.8736 4.3009 -3.4396 -1.0572 2.1506 -1.4138 0.0000 0.0000 0.0000 -57.3038 -10.3559 38.4380 71.0619 -58.6005 -43.6762 -0.0000 -0.0000 24.1601 -16.2998 5.6850 -1.6592 -7.1250 0.0000 -0.0000 -33.8941 33.7144 11.1245 0.0000 0.0000 0.0000 62.3096 16.2391 44.6092 -68.0344 58.0960 -41.0988 0.0000 0.0000 37.1981 34.4923 -21.5107 -14.1406 7.1250 -0.0000 -0.0000 54.0800 -44.1144 1.7549
-9.8682 16.2881 3.9242 -158.5300 -83.6555 154.4640 0.0000 0.0000 0.0000 -14.0573 -0.3716 -20.3721 10.3720 17.6138 60.7245 0.9726 -20.1110 -21.1650 0.6735 -5.2479 -14.6170 0.0000 0.0000 0.0000 19.1633 7.3837 -18.4384 -9.9558 -17.3849 59.3405 -3.0626 6.5159 -31.8389 -0.6526 5.1673 -14.3862 4.3845 -0.5487 13.0677 -0.7146 -0.2006 1.1982 -3.1965 -0.2460 -6.0860 2.2922 3.1522 2.6535 -1.7936 4.2318 -3.4242 -1.0252 2.1153 -1.4183 -0.0000 -0.0000 0.0000 -57.2547 -10.4025 38.5140 71.0241 -58.5947 -43.6439 -0.0000 -0.0000 24.1348 -16.3319 5.6778 -1.6606 -7.1250 0.0000 -0.0000 -33.9133 33.7052 11.1426 -0.0000 -0.0000 0.0000 62.3596 16.2218 44.6423 -67.9349 58.0780 -41.0144 0.0000 0.0000 37.1111 34.6577 -21.4745 -14.2028 7.1250 -0.0000 -0.0000 54.1388 -44.0581 1.8724
-9.8656 16.2887 3.9214 -158.5650 -83.6313 154.4230 0.0000 0.0000 0.0000 -14.0362 -0.3086 -20.3065 10.3675 17.6114 60.7098 1.0045 -19.9557 -21.3016 0.7534 -5.5440 -15.4669 0.0000 0.0000 0.0000 19.1946 7.3955 -18.3501 -9.9555 -17.3848 59.3397 -3.1109 6.6506 -32.0869 -0.5928 4.9292 -13.7067 4.3844 -0.5419 13.1658 -0.7218 -0.1862 1.1603 -3.2071 -0.2417 -6.1797 2.2762 3.0899 2.8282 -1.7432 4.1538 -3.4381 -1.0097 2.0763 -1.4562 -0.0000 0.0000 0.0000 -57.2400 -10.3711 38.6145 71.0326 -58.5960 -43.6512 -0.0000 -0.0000 24.0990 -16.2701 5.7202 -1.6662 -7.1250 0.0000 -0.0000 -33.8869 33.7478 11.0874 -0.0000 0.0000 0.0000 62.4110 16.1621 44.6862 -67.7767 58.0491 -40.8802 0.0000 0.0000 37.0086 34.7126 -21.4434 -14.2119 7.1250 -0.0000 -0.0000 54.1427 -44.0249 1.9399
-9.8593 16.2881 3.9172 -159.2010 -83.6363 154.7800 0.0000 0.0000 0.0000 -14.0832 -0.2065 -20.0070 10.3591 17.6069 60.6819 0.9899 -20.0713 -21.2585 0.7100 -5.3852 -15.0105 0.0000 0.0000 0.0000 19.1810 7.3153 -18.0754 -9.9584 -17.3864 59.3492 -3.1138 6.8970 -32.0758 -0.5112 4.5830 -12.7229 4.2857 -0.5270 13.5133 -0.7415 -0.1695 1.1794 -3.1764 -0.2361 -6.3512 2.3016 3.0446 2.9845 -1.7392 4.0979 -3.4892 -1.0162 2.0483 -1.5008 -0.0000 -0.0000 0.0000 -57.2635 -10.3620 38.6694 71.0751 -58.6025 -43.6875 -0.0000 -0.0000 24.1587 -16.0813 5.6074 -1.6135 -7.1250 0.0000 -0.0000 -33.7170 33.6674 11.0907 -0.0000 -0.0000 0.0000 62.4419 16.0966 44.6574 -67.6961 58.0342 -40.8117 0.0000 0.0000 36.9943 34.7603 -21.4482 -14.2390 7.1250 -0.0000 -0.0000 54.1718 -44.0202 1.9516
-9.8580 16.2874 3.9186 -160.0630 -83.5808 155.8450 0.0000 0.0000 0.0000 -14.1759 -0.2446 -20.2424 10.3602 17.6075 60.6855 1.0027 -20.0361 -21.3249 0.7116 -5.3913 -15.0281 0.0000 0.0000 0.0000 19.0606 7.4404 -18.3488 -9.9727 -17.3945 59.3971 -3.1099 6.9128 -32.0527 -0.5196 4.6197 -12.8270 4.2418 -0.4766 13.2446 -0.7691 -0.1196 1.1420 -3.1890 -0.2076 -6.2370 2.3517 3.0089 3.0463 -1.7705 4.0519 -3.5780 -1.0367 2.0251 -1.5396 0.0000 -0.0000 0.0000 -57.2642 -10.4512 38.6622 71.0370 -58.5967 -43.6549 -0.0000 -0.0000 24.2383 -16.0029 5.4531 -1.5612 -7.1250 0.0000 -0.0000 -33.6072 33.5407 11.1674 0.0000 -0.0000 0.0000 62.4347 16.0998 44.5687 -67.6941 58.0339 -40.8100 0.0000 0.0000 37.0352 34.7132 -21.4348 -14.2070 7.1250 -0.0000 -0.0000 54.1361 -44.0183 1.9528
-9.8472 16.2823 3.9179 -160.0430 -83.5461 155.8740 0.0000 0.0000 0.0000 -14.1557 -0.2538 -20.3461 10.3602 17.6075 60.6855 1.0157 -19.9459 -21.3685 0.7555 -5.5514 -15.4881 0.0000 0.0000 0.0000 19.0723 7.5075 -18.4743 -9.9888 -17.4036 59.4510 -3.1084 6.8271 -32.0536 -0.5444 4.7270 -13.1316 4.2288 -0.4695 13.2514 -0.7566 -0.1104 1.1281 -3.1702 -0.2031 -6.2548 2.3191 2.8736 2.8653 -1.7097 3.8688 -3.4617 -1.0026 1.9328 -1.4763 -0.0000 -0.0000 0.0000 -57.2568 -10.5485 38.6228 70.9391 -58.5817 -43.5714 -0.0000 -0.0000 24.3252 -15.9256 5.3106 -1.5128 -7.1250 0.0000 -0.0000 -33.5031 33.4240 11.2357 -0.0000 -0.0000 0.0000 62.4015 16.1223 44.5162 -67.7289 58.0403 -40.8396 0.0000 0.0000 37.0234 34.4773 -21.4459 -14.0941 7.1250 -0.0000 -0.0000 54.0198 -44.0679 1.8444
-9.8419 16.2819 3.9214 -160.2790 -83.5266 156.1280 0.0000 0.0000 0.0000 -14.1950 -0.2772 -20.3667 10.3524 17.6033 60.6597 0.9959 -20.0201 -21.2740 0.7130 -5.3965 -15.0431 0.0000 0.0000 0.0000 19.0220 7.5296 -18.5462 -10.0030 -17.4116 59.4985 -3.1086 6.8469 -32.0526 -0.5446 4.7280 -13.1342 4.2538 -0.4684 13.2306 -0.7640 -0.1069 1.1351 -3.1928 -0.2016 -6.2354 1.8402 2.4601 2.6249 -1.2235 3.3117 -3.1244 -0.7499 1.6524 -1.3525 0.0000 0.0000 0.0000 -57.2770 -10.6210 38.5632 70.9477 -58.5830 -43.5787 -0.0000 -0.0000 24.3891 -15.9850 5.2973 -1.5150 -7.1250 0.0000 -0.0000 -33.5387 33.4069 11.2693 0.0000 0.0000 0.0000 62.3513 16.1598 44.4541 -67.7139 58.0375 -40.8268 0.0000 0.0000 37.0451 34.1310 -21.4834 -13.9416 7.1250 -0.0000 -0.0000 53.8635 -44.1564 1.6570
-9.8362 16.2847 3.9271 -161.1050 -83.5697 156.9650 0.0000 0.0000 0.0000 -14.3435 -0.3465 -20.3571 10.3337 17.5933 60.5979 0.9616 -20.1492 -21.1111 0.6340 -5.0945 -14.1783 0.0000 0.0000 0.0000 18.8598 7.4879 -18.6197 -10.0154 -17.4185 59.5398 -3.1118 6.8131 -32.0738 -0.5740 4.8519 -13.4866 4.2224 -0.4740 13.2102 -0.8001 -0.1229 1.1516 -3.2102 -0.2083 -6.2079 1.6564 2.2269 2.3523 -1.0126 2.9966 -2.8821 -0.6404 1.4939 -1.2387 0.0000 -0.0000 0.0000 -57.3070 -10.6762 38.4667 71.0854 -58.6041 -43.6963 -0.0000 -0.0000 24.4224 -16.1169 5.4558 -1.5737 -7.1250 0.0000 -0.0000 -33.6859 33.5325 11.2120 0.0000 -0.0000 0.0000 62.3040 16.2480 44.3421 -67.6249 58.0211 -40.7513 0.0000 0.0000 37.1865 33.7944 -21.5152 -13.7914 7.1250 -0.0000 -0.0000 53.7053 -44.2384 1.4850
-9.8289 16.2841 3.9299 -162.6940 -83.5992 158.5360 0.0000 0.0000 0.0000 -14.5633 -0.3482 -20.3356 10.3133 17.5823 60.5304 0.9568 -20.1395 -21.0762 0.6193 -5.0361 -14.0116 0.0000 0.0000 0.0000 18.6365 7.4846 -18.6723 -10.0316 -17.4276 59.5938 -3.1193 6.6735 -32.1301 -0.6544 5.1742 -14.4060 4.0480 -0.4575 13.2435 -0.8392 -0.1277 1.1472 -3.1520 -0.2072 -6.2312 1.6596 2.1458 2.1567 -0.9799 2.8869 -2.6936 -0.6237 1.4390 -1.1475 -0.0000 0.0000 0.0000 -57.3678 -10.6519 38.3693 71.3025 -58.6369 -43.8816 -0.0000 -0.0000 24.4576 -15.9706 5.6356 -1.6098 -7.1250 0.0000 -0.0000 -33.6518 33.7022 11.0261 -0.0000 0.0000 0.0000 62.2671 16.2915 44.2614 -67.6058 58.0176 -40.7352 0.0000 0.0000 37.3007 33.5765 -21.6474 -13.7595 7.1250 -0.0000 -0.0000 53.6907 -44.3757 1.2137
-9.8233 16.2834 3.9314 -165.0900 -83.6987 160.8820 0.0000 0.0000 0.0000 -14.9064 -0.3850 -20.2722 10.2969 17.5735 60.4762 0.9758 -19.9941 -21.1341 0.6439 -5.1335 -14.2897 0.0000 0.0000 0.0000 18.2943 7.4409 -18.7003 -10.0505 -17.4381 59.6570 -3.1237 6.7415 -32.1464 -0.6687 5.2293 -14.5637 3.7509 -0.4457 13.2780 -0.9097 -0.1597 1.1523 -3.0524 -0.2163 -6.2471 1.7023 2.0941 2.0020 -0.9830 2.8172 -2.5009 -0.6261 1.4043 -1.0610 0.0000 0.0000 0.0000 -57.4159 -10.6226 38.2988 71.4981 -58.6662 -44.0487 -0.0000 -0.0000 24.4903 -15.8814 5.8229 -1.6533 -7.1250 0.0000 -0.0000 -33.6593 33.8731 10.8582 0.0000 0.0000 0.0000 62.2477 16.2836 44.2053 -67.7012 58.0352 -40.8161 0.0000 0.0000 37.3343 33.6404 -21.7212 -13.8346 7.1250 -0.0000 -0.0000 53.7852 -44.4205 1.1299
-9.8189 16.2824 3.9330 -166.0290 -83.7655 161.7900 0.0000 0.0000 0.0000 -15.0509 -0.4492 -20.2337 10.2979 17.5740 60.4794 0.9911 -19.9410 -21.2093 0.6640 -5.2114 -14.5126 0.0000 0.0000 0.0000 18.1415 7.4076 -18.7215 -10.0667 -17.4472 59.7112 -3.1288 6.8618 -32.1609 -0.6525 5.1668 -14.3849 3.6352 -0.4676 13.2876 -0.9504 -0.2084 1.1573 -3.0210 -0.2377 -6.2508 1.7654 2.0640 1.9996 -1.0068 2.7785 -2.4623 -0.6430 1.3849 -1.0480 0.0000 0.0000 0.0000 -57.4229 -10.5886 38.2210 71.7573 -58.7044 -44.2701 -0.0000 -0.0000 24.5165 -16.0513 6.0187 -1.7280 -7.1250 0.0000 -0.0000 -33.8479 34.0272 10.7872 0.0000 0.0000 0.0000 62.2478 16.2854 44.1673 -67.8103 58.0552 -40.9086 0.0000 0.0000 37.3554 33.9881 -21.5266 -13.8954 7.1250 -0.0000 -0.0000 53.8205 -44.2137 1.5403
-9.8122 16.2784 3.9334 -164.7860 -83.7121 160.5730 0.0000 0.0000 0.0000 -14.8662 -0.4535 -20.3128 10.3210 17.5864 60.5559 1.0133 -19.9434 -21.3521 0.7201 -5.4227 -15.1183 0.0000 0.0000 0.0000 18.3076 7.4643 -18.7794 -10.0792 -17.4541 59.7527 -3.1294 6.8713 -32.1631 -0.6462 5.1423 -14.3149 3.7602 -0.4967 13.3063 -0.9090 -0.2237 1.1239 -3.0454 -0.2491 -6.2983 1.6865 2.0356 2.1224 -0.9318 2.7421 -2.5650 -0.6092 1.3662 -1.1035 -0.0000 0.0000 0.0000 -57.4561 -10.4733 38.1387 72.2151 -58.7705 -44.6614 -0.0000 -0.0000 24.5290 -16.2503 6.0349 -1.7552 -7.1250 0.0000 -0.0000 -33.9898 34.0223 10.8552 -0.0000 0.0000 0.0000 62.2326 16.2755 44.1499 -67.8795 58.0679 -40.9673 0.0000 0.0000 37.3972 34.2006 -21.3570 -13.9014 7.1250 -0.0000 -0.0000 53.7998 -44.0484 1.8680
-9.8031 16.2737 3.9316 -163.0140 -83.5565 158.8490 0.0000 0.0000 0.0000 -14.5482 -0.3845 -20.4797 10.3548 17.6046 60.6678 1.0175 -19.9977 -21.4026 0.7570 -5.5569 -15.5041 0.0000 0.0000 0.0000 18.6002 7.6205 -18.8494 -10.0883 -17.4592 59.7830 -3.1198 6.7730 -32.1216 -0.6406 5.1206 -14.2529 3.9507 -0.5015 13.3606 -0.8404 -0.1933 1.0782 -3.0867 -0.2404 -6.3752 1.4530 2.0117 2.2694 -0.6939 2.7111 -2.7562 -0.5006 1.3487 -1.1949 -0.0000 0.0000 0.0000 -57.4771 -10.3832 38.1002 72.6735 -58.8347 -45.0535 -0.0000 -0.0000 24.5378 -16.3510 6.0179 -1.7618 -7.1250 0.0000 -0.0000 -34.0522 33.9982 10.9077 -0.0000 0.0000 0.0000 62.2066 16.2790 44.1327 -67.9047 58.0725 -40.9887 0.0000 0.0000 37.4473 34.0891 -21.3458 -13.8388 7.1250 -0.0000 -0.0000 53.7306 -44.0591 1.8417
